"An x-rated magazine sponsored a contest to determine who's the sexiest girl in San Francisco. After an exhaustive (and deep probing) search, an ace reporter sniffs out two sizzling strumpets who'll do anything for the $20,000 prize money in a no-holds barred Carnal Olympics. Event number one finds each team in a very hot girl-girl love making event (Judges: give these gals a 10 on technique alone). Event number two has each girl seducing an officer of the law in a hard-driving shoot out of a very personal nature. In the final and decisive even number three, a not-to-be-believed pool party turns into an orgy of truly Olympian proportions where everyone turns out to be a wild, wild winner."
 
http://www.adultfilmdatabase.com/video.cfm?videoid=8942

Format : AVI 
Format/Info : Audio Video Interleave 
File size : 966 MiB 
Duration : 1h 22mn 
Overall bit rate : 1 631 Kbps 
Writing library : MPlayer 

Video  Format : MPEG-4 Visual 
Format profile : Simple@L1 
Format settings, BVOP : No 
Format settings, QPel : No 
Format settings, GMC : No warppoints 
Format settings, Matrix : Default (H.263) 
Codec ID : DX50 
Codec ID/Hint : DivX 5 
Duration : 1h 22mn 
Bit rate : 1 474 Kbps 
Width : 640 pixels 
Height : 480 pixels 
Display aspect ratio : 4/3 
Frame rate : 23.976 fps 
Resolution : 24 bits 
Colorimetry : 4:2:0 
Scan type : Progressive 
Bits/(Pixel*Frame) : 0.200 
Stream size : 873 MiB (90%) 
Writing library : Lavc51.20.0 

Audio  Format : MPEG Audio 
Format version : Version 1 
Format profile : Layer 3 
Codec ID : 55 
Codec ID/Hint : MP3 
Duration : 1h 22mn 
Bit rate mode : Variable 
Bit rate : 145 Kbps 
Channel(s) : 1 channel 
Sampling rate : 44.1 KHz 
Resolution : 16 bits 
Stream size : 86.0 MiB (9%) 
Alignment : Aligned on interleaves 
Interleave, duration : 26 ms (0.63 video frame) 
Interleave, preload duration : 540 ms 

